<?xml version="1.0" encoding="UTF-8"?>
<svg version="1.1" xmlns="http://www.w3.org/2000/svg" width="500" height="500">
<path d="M0 0 C11.38740115 -0.11295991 22.77443022 -0.20469263 34.16226482 -0.25906086 C39.45010378 -0.28515488 44.73753957 -0.3205498 50.02514648 -0.37719727 C55.12800369 -0.43152335 60.23047311 -0.461422 65.33359718 -0.47438622 C67.2804964 -0.48362498 69.22737438 -0.50166634 71.17410851 -0.52865028 C73.90128821 -0.56494875 76.62686565 -0.56994505 79.35424805 -0.56762695 C80.15913666 -0.58560333 80.96402527 -0.60357971 81.79330444 -0.62210083 C85.80360179 -0.58521689 87.76729339 -0.17539023 91.00488281 2.26477051 C93.00362932 5.00497566 93.6187502 6.02873684 93.56762695 9.33129883 C93.5672493 10.151772 93.56687164 10.97224518 93.56648254 11.81758118 C93.54067612 12.6885997 93.51486969 13.55961823 93.48828125 14.45703125 C93.47766914 15.81147591 93.47766914 15.81147591 93.46684265 17.19328308 C93.43893319 20.06721088 93.37620232 22.93916472 93.3125 25.8125 C93.28741262 27.76494575 93.26460022 29.71742215 93.24414062 31.66992188 C93.18911789 36.44737102 93.10286998 41.22335126 93 46 C93.79069382 45.98889694 94.58138763 45.97779388 95.39604187 45.96635437 C102.85551448 45.86607869 110.31465932 45.78999853 117.77463055 45.74093914 C121.60973093 45.7148688 125.44427343 45.67951966 129.27905273 45.62280273 C132.98141252 45.56838836 136.68323649 45.53856017 140.38596535 45.52561378 C141.79699958 45.51639053 143.20800518 45.49837884 144.61881065 45.47134972 C146.59803933 45.43494595 148.5778097 45.43295667 150.55737305 45.43237305 C151.68322311 45.42126999 152.80907318 45.41016693 153.96903992 45.39872742 C158.60875788 46.31914046 160.70734908 49.25595767 163.43115234 52.9309082 C163.81223145 53.54796631 164.19331055 54.16502441 164.5859375 54.80078125 C165.03396729 55.5182251 165.48199707 56.23566895 165.94360352 56.97485352 C166.41596436 57.74627686 166.8883252 58.5177002 167.375 59.3125 C167.88538818 60.13355225 168.39577637 60.95460449 168.92163086 61.80053711 C170.03056279 63.58483234 171.13682526 65.37078878 172.24072266 67.15820312 C174.05986808 70.09670615 175.89315093 73.02595338 177.73046875 75.953125 C184.89495187 87.37406868 184.89495187 87.37406868 186.88305664 90.69140625 C188.46988714 93.17148085 190.06092945 95.37500962 191.88061523 97.66796875 C201.93621401 111.02112755 201.46958934 124.7235945 200.98846436 140.81652832 C200.91981178 143.58943449 200.90850912 146.36136242 200.89845943 149.13500786 C200.88268002 152.462909 200.83030943 155.78965789 200.77734375 159.1171875 C200.76348129 160.35250214 200.74961884 161.58781677 200.7353363 162.86056519 C200.70013382 164.00340973 200.66493134 165.14625427 200.62866211 166.32373047 C200.6043663 167.32644989 200.5800705 168.32916931 200.55503845 169.36227417 C199.85651192 172.68190271 198.5910799 173.87847976 196 176 C193.0003383 177.49983085 189.88053039 177.23902055 186.5859375 177.31640625 C185.85629791 177.33718735 185.12665833 177.35796844 184.37490845 177.37937927 C182.04170237 177.44481917 179.70838279 177.50373368 177.375 177.5625 C175.79425905 177.60569053 174.21352961 177.64930499 172.6328125 177.69335938 C168.75532496 177.80049481 164.87772315 177.90177782 161 178 C160.68256836 178.67691895 160.36513672 179.35383789 160.03808594 180.05126953 C159.60786133 180.94442871 159.17763672 181.83758789 158.734375 182.7578125 C158.10354004 184.08256592 158.10354004 184.08256592 157.45996094 185.43408203 C153.51708723 192.36378147 146.52399814 196.7634642 139 199 C130.43562735 200.68560735 122.62492595 200.25980759 114.9375 195.9375 C107.52002074 190.8983708 103.46269918 185.61944713 101 177 C54.965 176.505 54.965 176.505 8 176 C7.01 178.97 6.02 181.94 5 185 C0.36488979 192.54106014 -6.94418636 197.0866363 -15.375 199.375 C-24.78137017 201.05996718 -33.05441102 199.24734289 -41 194 C-46.17438444 189.9259157 -49.70776941 185.19329383 -52 179 C-52 178.34 -52 177.68 -52 177 C-53.46022583 177.02356567 -53.46022583 177.02356567 -54.94995117 177.04760742 C-58.57470367 177.10206239 -62.19942026 177.13640626 -65.82446289 177.16479492 C-67.39093107 177.17984622 -68.95735736 177.20029207 -70.52368164 177.22631836 C-72.78021606 177.26286433 -75.03619153 177.27976261 -77.29296875 177.29296875 C-77.98899704 177.30845261 -78.68502533 177.32393646 -79.40214539 177.33988953 C-83.78349293 177.34139304 -86.56875929 176.77227365 -90 174 C-91.96049394 170.87430617 -92.24791139 168.46822606 -92.24050903 164.8114624 C-92.24325836 163.76260864 -92.24600769 162.71375488 -92.24884033 161.63311768 C-92.24164978 160.4880072 -92.23445923 159.34289673 -92.22705078 158.16308594 C-92.22734283 156.95305908 -92.22763489 155.74303223 -92.22793579 154.49633789 C-92.22678161 151.18253296 -92.21675471 147.86897756 -92.20278788 144.55521679 C-92.19028104 141.09054996 -92.18911005 137.62587977 -92.18673706 134.16119385 C-92.18052215 127.60225789 -92.1641112 121.04338864 -92.14403808 114.48448205 C-92.12167941 107.0165843 -92.11068573 99.54868337 -92.10064721 92.08076048 C-92.07974497 76.7204673 -92.04416569 61.36024488 -92 46 C-86.39 46 -80.78 46 -75 46 C-75 83.62 -75 121.24 -75 160 C-67.41 160 -59.82 160 -52 160 C-51.34 157.69 -50.68 155.38 -50 153 C-44.68284392 145.0930222 -37.82021634 139.59599446 -28.49609375 137.4140625 C-19.2116584 136.10639555 -11.18484087 138.11066524 -3.33203125 143.15625 C2.1679316 147.50462934 5.41878618 152.54696546 8 159 C42.155 159.495 42.155 159.495 77 160 C77 112.48 77 64.96 77 16 C51.59 16 26.18 16 0 16 C0 10.72 0 5.44 0 0 Z M93 62 C93 74.21 93 86.42 93 99 C119.07 99 145.14 99 172 99 C167.40758429 90.48627884 167.40758429 90.48627884 162.45703125 82.25390625 C161.85826172 81.31482422 161.25949219 80.37574219 160.64257812 79.40820312 C159.73668945 77.99958008 159.73668945 77.99958008 158.8125 76.5625 C158.19697266 75.59634766 157.58144531 74.63019531 156.94726562 73.63476562 C154.49685768 69.80222919 154.49685768 69.80222919 152 66 C151.58648285 65.30194748 151.1729657 64.60389496 150.74691772 63.88468933 C149.13353524 61.77174025 149.13353524 61.77174025 146.51325989 61.51898193 C145.03100166 61.5323056 145.03100166 61.5323056 143.51879883 61.54589844 C142.39786331 61.54620056 141.2769278 61.54650269 140.12202454 61.54681396 C138.91257675 61.56745911 137.70312897 61.58810425 136.45703125 61.609375 C135.21829758 61.61503479 133.9795639 61.62069458 132.70329285 61.62652588 C129.41335722 61.64513776 126.12420519 61.68106332 122.83453369 61.7253418 C119.47637697 61.76629369 116.11810207 61.78475587 112.75976562 61.8046875 C106.17255154 61.84543736 99.58728258 61.92372397 93 62 Z M93 115 C93 129.85 93 144.7 93 160 C95.64 160 98.28 160 101 160 C101.41958984 159.03900391 101.41958984 159.03900391 101.84765625 158.05859375 C105.87110261 149.37778184 110.53039319 143.29186234 119.6171875 139.71875 C128.14912031 137.14518338 136.50015641 137.5185617 144.640625 141.19140625 C153.01576789 145.79271978 156.99694809 150.99084426 160 160 C167.92 160 175.84 160 184 160 C184.04584673 153.91257338 184.08569134 147.8257428 184.10986328 141.73828125 C184.11993712 139.66632053 184.13359666 137.59437407 184.15087891 135.52246094 C184.17506664 132.54879236 184.18646908 129.5753113 184.1953125 126.6015625 C184.20563507 125.67131256 184.21595764 124.74106262 184.22659302 123.78262329 C184.22674408 122.92188202 184.22689514 122.06114075 184.22705078 121.17431641 C184.231492 120.41486725 184.23593323 119.65541809 184.24050903 118.87295532 C184.16250155 116.75497701 184.16250155 116.75497701 182 115 C179.16826905 114.811826 176.43509248 114.7482662 173.60302734 114.77294922 C172.73466751 114.77265717 171.86630768 114.77236511 170.97163391 114.77206421 C168.09296782 114.77346083 165.21455854 114.78903758 162.3359375 114.8046875 C160.3433954 114.80841645 158.35085147 114.81126398 156.35830688 114.81326294 C151.10737061 114.82090868 145.85654452 114.84056523 140.60565186 114.8626709 C134.30896278 114.88670088 128.01223692 114.89590583 121.71551514 114.90757751 C112.14360006 114.92698909 102.57192688 114.96530514 93 115 Z M-34.25390625 159.578125 C-36.9295261 163.71741146 -37.63387046 167.01958923 -37 172 C-35.01155883 177.33739473 -32.09332352 180.45333824 -27 183 C-22.34951706 183.56735892 -18.90269423 183.4598631 -14.6875 181.3125 C-11.06829483 178.1983002 -8.53530006 175.75884307 -7.125 171.125 C-6.96662035 167.16550873 -7.43122271 164.66048035 -9 161 C-11.97553121 157.80988721 -15.47039714 154.30861155 -19.953125 153.76171875 C-26.14188771 153.56174172 -30.18565269 154.45795541 -34.25390625 159.578125 Z M118.1875 160.0625 C115.75768577 164.02693374 115.69105697 167.44309033 116 172 C117.98844117 177.33739473 120.90667648 180.45333824 126 183 C130.65048294 183.56735892 134.09730577 183.4598631 138.3125 181.3125 C143.18680572 177.35652621 143.18680572 177.35652621 145.3828125 171.66796875 C145.6394596 165.96184826 144.95168574 162.36765266 141 158 C136.84334206 154.32667438 133.58448903 153.35460321 128.1796875 153.609375 C123.80842498 154.39275538 121.04272816 156.81344726 118.1875 160.0625 Z " fill="#E28414" transform="translate(234,209)"/>
<path d="M0 0 C15.89389554 -0.71701784 31.88521294 4.80450427 44.078125 14.96875 C57.78605085 28.36275388 64.61071309 45.75412204 65.328125 64.71875 C65.17025721 76.13785371 62.0277446 86.94677822 57.078125 97.15625 C56.63597656 98.06890625 56.19382812 98.9815625 55.73828125 99.921875 C51.95773633 107.25257151 47.24070272 113.74444151 42.078125 120.15625 C41.63194824 120.7121582 41.18577148 121.26806641 40.72607422 121.84082031 C16.63403061 151.56357143 16.63403061 151.56357143 2.515625 155.03125 C-2.69647407 153.70453387 -5.9514717 150.68186348 -9.921875 147.15625 C-10.69402344 146.49238281 -11.46617187 145.82851562 -12.26171875 145.14453125 C-32.77143407 127.16113419 -56.76727732 102.4495152 -59.12719727 73.65063477 C-59.22571326 70.89898974 -59.25051111 68.15959316 -59.234375 65.40625 C-59.23018555 64.43341064 -59.22599609 63.46057129 -59.22167969 62.45825195 C-59.05457305 51.81587018 -56.81713617 42.61148047 -51.921875 33.15625 C-51.52484375 32.36734375 -51.1278125 31.5784375 -50.71875 30.765625 C-43.15890827 16.94936252 -31.04705755 7.60795473 -16.171875 2.78125 C-10.70164321 1.25739972 -5.6468802 0.45909595 0 0 Z M-31.24609375 31.8046875 C-40.61956883 44.17559546 -44.2476044 56.65025042 -42.921875 72.15625 C-38.17203351 96.16143692 -21.11359048 114.73776155 -3.921875 131.03125 C-2.6225 132.26488281 -2.6225 132.26488281 -1.296875 133.5234375 C0.87620522 135.34767478 0.87620522 135.34767478 3.10546875 135.15625 C7.75762022 132.79793163 11.33531294 128.71982881 15.078125 125.15625 C15.97273438 124.32609375 16.86734375 123.4959375 17.7890625 122.640625 C32.54899121 108.51507718 47.65246372 88.79452799 48.47631836 67.70654297 C48.71698762 53.23948008 44.93747593 40.70219851 34.9765625 29.87109375 C24.47673153 19.94634186 12.58392031 16.49616524 -1.62890625 16.8515625 C-13.41235304 17.47952861 -23.49856348 22.97640931 -31.24609375 31.8046875 Z " fill="#E28414" transform="translate(174.921875,90.84375)"/>
<path d="M0 0 C8.45621091 6.99206132 13.29680234 16.79525015 14.4453125 27.66015625 C14.99654434 37.78444768 11.38318033 47.59181431 5.296875 55.58984375 C-1.51205372 62.98350871 -9.73303772 67.47414957 -19.7421875 68.125 C-32.0925434 68.61851934 -41.36841802 66.24379243 -50.75 57.8125 C-58.68855245 50.0025815 -61.96676335 41.79364668 -62.0625 30.75 C-62.05148569 19.21556632 -59.3525706 11.44095192 -51.1640625 3.0390625 C-36.41253144 -10.56671857 -16.382875 -11.76836521 0 0 Z M-41.125 16.1875 C-45.00273239 21.16111328 -46.30710371 26.12222207 -46.1171875 32.37890625 C-45.25663899 38.08232884 -42.89956092 42.95280982 -38.51953125 46.7421875 C-31.98653804 51.19698548 -26.63526349 52.63266114 -18.75 51.8125 C-12.58384765 50.01358736 -8.22855079 46.14110806 -4.75 40.8125 C-2.0764619 35.26330064 -1.98814535 29.86021217 -2.75 23.8125 C-5.16331479 17.49437975 -9.87830464 13.16702137 -15.57421875 9.703125 C-24.85764161 5.90308835 -34.63148279 9.14765322 -41.125 16.1875 Z " fill="#E28414" transform="translate(201.75,123.1875)"/>
<path d="M0 0 C1.13526123 -0.00478363 2.27052246 -0.00956726 3.44018555 -0.01449585 C5.83741646 -0.01789422 8.23469375 -0.00869641 10.63183594 0.01220703 C14.29987994 0.03897042 17.96486361 0.01245382 21.6328125 -0.01953125 C23.96354842 -0.01622714 26.29428243 -0.0098209 28.625 0 C29.72094482 -0.01012115 30.81688965 -0.02024231 31.94604492 -0.03067017 C39.51563112 0.08577241 39.51563112 0.08577241 43.5078125 2.98291016 C45.88063821 6.50812281 45.99452194 8.49615062 45.3125 12.6640625 C43.29378575 15.24293645 42.09358101 16.50061424 38.8530426 17.1787262 C37.93546677 17.18492477 37.01789093 17.19112335 36.07250977 17.19750977 C35.02785049 17.2133461 33.98319122 17.22918243 32.90687561 17.24549866 C31.78389572 17.24053879 30.66091583 17.23557892 29.50390625 17.23046875 C28.34503403 17.23666733 27.1861618 17.24286591 25.99217224 17.24925232 C23.54190918 17.25635483 21.09159791 17.25316907 18.64135742 17.24047852 C14.89216221 17.22662591 11.14546824 17.26066614 7.39648438 17.29882812 C5.01562439 17.29977942 2.63476128 17.29791993 0.25390625 17.29296875 C-0.86704941 17.30622696 -1.98800507 17.31948517 -3.14292908 17.33314514 C-10.90159917 17.24034192 -10.90159917 17.24034192 -14.89477539 14.31225586 C-16.6875 11.6640625 -16.6875 11.6640625 -17.3125 8.6640625 C-15.38127945 -0.60579615 -7.77781909 -0.0718289 0 0 Z " fill="#E28413" transform="translate(82.6875,292.3359375)"/>
<path d="M0 0 C1.26972656 -0.00644531 2.53945312 -0.01289063 3.84765625 -0.01953125 C5.16636719 -0.00019531 6.48507813 0.01914062 7.84375 0.0390625 C9.82181641 0.01005859 9.82181641 0.01005859 11.83984375 -0.01953125 C13.74443359 -0.00986328 13.74443359 -0.00986328 15.6875 0 C16.84443359 0.00563965 18.00136719 0.0112793 19.19335938 0.01708984 C23.26834116 0.85393902 24.77564027 2.45747572 27.34375 5.6640625 C28.05133401 9.43784388 27.72890347 11.03168964 25.73217773 14.31005859 C22.59303082 17.40396175 20.92187954 17.30772466 16.56640625 17.328125 C15.24833984 17.33457031 13.93027344 17.34101563 12.57226562 17.34765625 C11.88817627 17.33718262 11.20408691 17.32670898 10.49926758 17.31591797 C8.41497202 17.28917441 6.33608008 17.31564957 4.25195312 17.34765625 C2.93259766 17.34121094 1.61324219 17.33476562 0.25390625 17.328125 C-0.95128662 17.32248535 -2.15647949 17.3168457 -3.39819336 17.31103516 C-7.55367388 16.48585544 -9.04925662 14.93768019 -11.65625 11.6640625 C-12.28125 8.6640625 -12.28125 8.6640625 -11.65625 5.6640625 C-8.02957964 1.14407017 -5.75462558 0.0280518 0 0 Z " fill="#DF8517" transform="translate(100.65625,315.3359375)"/>
<path d="M0 0 C3.375 2.125 3.375 2.125 5 5 C5.80573518 8.86752888 5.31339525 10.44553149 3.375 13.875 C-1.97368597 17.24269117 -7.84167582 16.88080918 -14 16 C-16.375 14.6796875 -16.375 14.6796875 -18 13 C-19.10373378 9.02655839 -19.41543583 6.91000228 -17.6875 3.125 C-13.60636116 -2.01421187 -5.969733 -0.60732544 0 0 Z " fill="#E18513" transform="translate(123,339)"/>
<path d="M0 0 C3.65316671 1.24976756 4.78065836 1.67098753 7 5 C7.1953125 7.48046875 7.1953125 7.48046875 7.125 10.1875 C7.10695313 11.08855469 7.08890625 11.98960937 7.0703125 12.91796875 C7.03550781 13.94857422 7.03550781 13.94857422 7 15 C6.01 15 5.02 15 4 15 C4 11.04 4 7.08 4 3 C2.68 2.67 1.36 2.34 0 2 C0 1.34 0 0.68 0 0 Z " fill="#D98529" transform="translate(320,209)"/>
<path d="M0 0 C1.05767578 0.49113281 1.05767578 0.49113281 2.13671875 0.9921875 C5.23867167 2.08400722 7.54006053 2.20385396 10.8125 2.125 C11.78832031 2.10695313 12.76414062 2.08890625 13.76953125 2.0703125 C14.50558594 2.04710937 15.24164063 2.02390625 16 2 C16 2.66 16 3.32 16 4 C10.71189807 6.09320701 7.88780259 6.09116588 2.6015625 4.01953125 C1 3 1 3 0 0 Z " fill="#D38929" transform="translate(355,389)"/>
<path d="M0 0 C2 2 2 2 2 5 C7.28 5 12.56 5 18 5 C18 5.33 18 5.66 18 6 C15.22813012 6.10787818 12.46044463 6.18723327 9.6875 6.25 C8.90181641 6.28351563 8.11613281 6.31703125 7.30664062 6.3515625 C5.13339453 6.38855392 3.14030099 6.38367634 1 6 C-1.04296875 3.984375 -1.04296875 3.984375 -2 2 C-1.34 1.34 -0.68 0.68 0 0 Z " fill="#DC8324" transform="translate(145,379)"/>
<path d="M0 0 C1.6026782 -0.10824843 3.20745748 -0.18570645 4.8125 -0.25 C5.70582031 -0.29640625 6.59914063 -0.3428125 7.51953125 -0.390625 C10 0 10 0 11.82421875 2.015625 C12.40623047 2.99789063 12.40623047 2.99789063 13 4 C11.20676747 3.71812064 9.41542874 3.4241719 7.625 3.125 C6.62726563 2.96257812 5.62953125 2.80015625 4.6015625 2.6328125 C2 2 2 2 0 0 Z " fill="#D18A2C" transform="translate(351,405)"/>
<path d="M0 0 C0.33 0 0.66 0 1 0 C1 3.96 1 7.92 1 12 C0.34 11.67 -0.32 11.34 -1 11 C-2.36817102 4.95724466 -2.36817102 4.95724466 -1.0625 1.5625 C-0.711875 1.046875 -0.36125 0.53125 0 0 Z " fill="#C98B2C" transform="translate(106,341)"/>
<path d="M0 0 C0.33 0 0.66 0 1 0 C1.3125 3.25 1.3125 3.25 1 7 C-1.5 9.4375 -1.5 9.4375 -4 11 C-4.33 9.35 -4.66 7.7 -5 6 C-3.35 6 -1.7 6 0 6 C0 4.02 0 2.04 0 0 Z " fill="#D8842E" transform="translate(127,298)"/>
<path d="M0 0 C1.21236328 0.01353516 1.21236328 0.01353516 2.44921875 0.02734375 C3.37154297 0.04474609 3.37154297 0.04474609 4.3125 0.0625 C1.27724514 2.08600324 0.11823798 2.38374018 -3.375 2.6875 C-4.18324219 2.76226562 -4.99148437 2.83703125 -5.82421875 2.9140625 C-6.43910156 2.96304687 -7.05398437 3.01203125 -7.6875 3.0625 C-7.6875 2.4025 -7.6875 1.7425 -7.6875 1.0625 C-4.80538698 0.10179566 -2.98899956 -0.04331883 0 0 Z " fill="#CB8B31" transform="translate(221.6875,404.9375)"/>
<path d="M0 0 C0 0.99 0 1.98 0 3 C-1.75 4.125 -1.75 4.125 -4 5 C-6.25 4.125 -6.25 4.125 -8 3 C-8 2.34 -8 1.68 -8 1 C-5.36 0.67 -2.72 0.34 0 0 Z " fill="#D9862B" transform="translate(216,391)"/>
<path d="M0 0 C0.66 1.32 1.32 2.64 2 4 C-5.75 3.25 -5.75 3.25 -8 1 C-5.36 0.67 -2.72 0.34 0 0 Z " fill="#D2862A" transform="translate(206,404)"/>
<path d="M0 0 C0.66 0 1.32 0 2 0 C1.67 2.64 1.34 5.28 1 8 C-0.32 8.33 -1.64 8.66 -3 9 C-2.01 6.03 -1.02 3.06 0 0 Z " fill="#DC842A" transform="translate(227,377)"/>
<path d="M0 0 C0.33 0 0.66 0 1 0 C1.66 3.96 2.32 7.92 3 12 C2.01 12 1.02 12 0 12 C-0.66 10.02 -1.32 8.04 -2 6 C-1.34 6 -0.68 6 0 6 C0 4.02 0 2.04 0 0 Z " fill="#D18B25" transform="translate(349,374)"/>
<path d="M0 0 C3 0 3 0 4.625 1.125 C6.47382935 3.64613093 6.65927797 5.93350175 7 9 C4.03595495 6.19195732 1.55500981 3.81684226 0 0 Z " fill="#D8881D" transform="translate(136,207)"/>
<path d="M0 0 C0.66 0 1.32 0 2 0 C2 1.65 2 3.3 2 5 C-0.64 4.34 -3.28 3.68 -6 3 C-6 2.67 -6 2.34 -6 2 C-4.02 2 -2.04 2 0 2 C0 1.34 0 0.68 0 0 Z " fill="#D1882C" transform="translate(196,107)"/>
<path d="M0 0 C1.07349791 4.29399165 0.79682816 5.19495213 -1 9 C-1.99 8.67 -2.98 8.34 -4 8 C-2.68 5.36 -1.36 2.72 0 0 Z " fill="#DB8C26" transform="translate(126,118)"/>
<path d="M0 0 C1.98 0.99 1.98 0.99 4 2 C4 4.31 4 6.62 4 9 C2.00902154 6.01353231 1.05875074 3.40312738 0 0 Z " fill="#D58729" transform="translate(119,177)"/>
</svg>
