<?xml version="1.0" encoding="UTF-8"?>
<svg version="1.1" xmlns="http://www.w3.org/2000/svg" width="500" height="500">
<path d="M0 0 C0.97788483 0.00021149 1.95576965 0.00042297 2.96328735 0.00064087 C17.57106896 0.03221248 31.4237885 0.67060279 45.625 4.375 C46.35960449 4.55160156 47.09420898 4.72820313 47.85107422 4.91015625 C87.30290503 14.46994473 123.98311208 39.8943775 145.625 74.375 C145.99866699 74.96732422 146.37233398 75.55964844 146.75732422 76.16992188 C156.8813265 92.48920914 163.45148433 110.45496653 166.625 129.375 C166.74069336 130.05949219 166.85638672 130.74398437 166.97558594 131.44921875 C174.68596017 179.49606114 159.80335352 228.6577235 138.625 271.375 C138.08858887 272.46022949 137.55217773 273.54545898 136.99951172 274.66357422 C128.99605202 290.73289426 120.26453392 306.23174818 110.625 321.375 C110.24182617 321.97763672 109.85865234 322.58027344 109.46386719 323.20117188 C107.25669044 326.6441097 104.95710945 330.01575209 102.625 333.375 C102.1412793 334.07592773 101.65755859 334.77685547 101.15917969 335.49902344 C89.55930295 352.29287483 77.70756807 368.84148042 64.71875 384.59375 C61.71900556 388.23683116 58.82528288 391.95554871 55.9375 395.6875 C51.85725779 400.9382493 47.53155785 405.87515759 43.00390625 410.75 C40.70779631 413.28363856 38.56674327 415.88801126 36.4375 418.5625 C31.93472335 424.14883253 27.06133217 429.3456212 22.11645508 434.54174805 C18.36552199 438.48745737 14.73673214 442.51091888 11.16943359 446.62329102 C9.44012827 448.58468301 7.63318049 450.43624552 5.75 452.25 C3.34980848 454.56191935 3.34980848 454.56191935 1.625 457.375 C-1.6993483 456.2668839 -2.41153703 455.43938063 -4.59375 452.8125 C-8.22370333 448.53434072 -12.01724027 444.44752161 -15.875 440.375 C-20.28363371 435.7209372 -24.60510841 431.01582385 -28.80761719 426.17431641 C-30.75468954 423.93912587 -32.74994469 421.75029997 -34.75 419.5625 C-38.64863397 415.24239209 -42.35003858 410.79428619 -46.0078125 406.26953125 C-48.058846 403.76158434 -50.14910567 401.29420235 -52.26171875 398.83813477 C-58.7230457 391.31110543 -64.73587286 383.47828492 -70.71337891 375.56445312 C-72.35331983 373.40356712 -74.00768966 371.2546628 -75.66796875 369.109375 C-83.1840208 359.38746418 -90.40952732 349.49900507 -97.375 339.375 C-97.79845703 338.75979492 -98.22191406 338.14458984 -98.65820312 337.51074219 C-121.47406668 304.19090341 -141.12825765 268.59354998 -154.375 230.375 C-154.66600586 229.54838867 -154.95701172 228.72177734 -155.25683594 227.87011719 C-171.09134507 182.45547673 -173.02116136 132.54257431 -152.375 88.375 C-139.59463416 62.13187774 -118.77648641 41.01713675 -94.375 25.375 C-92.76431641 24.32699219 -92.76431641 24.32699219 -91.12109375 23.2578125 C-73.87562347 12.72008956 -54.1814017 6.02743219 -34.375 2.375 C-33.01544189 2.10115479 -33.01544189 2.10115479 -31.62841797 1.82177734 C-21.13360106 -0.07944534 -10.62943433 -0.0211263 0 0 Z M54.42578125 104.31640625 C53.60464844 105.18136719 52.78351563 106.04632813 51.9375 106.9375 C48.36869149 110.61429839 44.75831581 114.08215787 40.87109375 117.4140625 C37.98844717 119.9307383 35.18204533 122.52459067 32.375 125.125 C31.81997803 125.63885254 31.26495605 126.15270508 30.69311523 126.68212891 C29.56222164 127.72936736 28.43144407 128.77673113 27.30078125 129.82421875 C25.16863309 131.79732555 23.03342948 133.76698374 20.890625 135.72851562 C19.88321483 136.65673505 18.8831072 137.59294539 17.890625 138.53710938 C15.65010028 140.6481414 13.51754079 142.43971975 10.875 144.03125 C7.81830537 145.97989283 6.39529352 147.1712005 4.625 150.375 C3.91794304 154.25392971 3.78048404 158.06268092 3.75 162 C3.74194336 163.01481445 3.73388672 164.02962891 3.72558594 165.07519531 C3.87777188 169.83688935 4.06806666 173.3312924 7.1796875 177.0859375 C8.39011719 178.21902344 8.39011719 178.21902344 9.625 179.375 C7.315 181.685 5.005 183.995 2.625 186.375 C-0.65571814 184.73464093 -2.17677554 183.82218386 -4.62738037 181.36312866 C-5.24711227 180.74614609 -5.86684418 180.12916351 -6.50535583 179.4934845 C-7.17357864 178.81807114 -7.84180145 178.14265778 -8.53027344 177.44677734 C-9.24286819 176.73447464 -9.95546295 176.02217194 -10.68965149 175.2882843 C-13.04266451 172.9338785 -15.3885151 170.57246875 -17.734375 168.2109375 C-19.36489975 166.57668245 -20.99586676 164.94286854 -22.6272583 163.30947876 C-26.91916676 159.00993527 -31.20503514 154.70441935 -35.48968506 150.39764404 C-39.86319822 146.00366977 -44.24238079 141.61535397 -48.62109375 137.2265625 C-57.21129625 128.61491236 -65.7951302 119.99694389 -74.375 111.375 C-75.49174511 112.32542087 -76.60752489 113.27697608 -77.72290039 114.22900391 C-78.3443544 114.75877838 -78.96580841 115.28855286 -79.60609436 115.8343811 C-81.76944368 117.71853861 -83.80199013 119.70421803 -85.8125 121.75 C-86.49183594 122.43835938 -87.17117187 123.12671875 -87.87109375 123.8359375 C-88.36738281 124.34382813 -88.86367187 124.85171875 -89.375 125.375 C-87.74331478 129.22835832 -85.160109 132.13528252 -82.4375 135.25 C-78.47833148 139.84713261 -74.65082611 144.51479899 -70.9375 149.3125 C-66.73491891 154.72902644 -62.3498897 159.94883345 -57.85571289 165.12475586 C-54.4057012 169.11848004 -51.10647816 173.20302135 -47.875 177.375 C-43.63151623 182.8527423 -39.2077617 188.13896066 -34.67089844 193.37548828 C-30.43600281 198.27147488 -26.36761426 203.27854532 -22.375 208.375 C-23.7949255 211.60548748 -25.51119387 213.75742488 -28.0078125 216.23828125 C-28.73226562 216.96080078 -29.45671875 217.68332031 -30.203125 218.42773438 C-30.96109375 219.17345703 -31.7190625 219.91917969 -32.5 220.6875 C-33.23476562 221.42162109 -33.96953125 222.15574219 -34.7265625 222.91210938 C-38.0972707 226.25611302 -41.50316524 229.49694148 -45.1015625 232.5949707 C-49.66754925 236.56970601 -53.92396683 240.81510686 -58.1796875 245.1171875 C-58.98487823 245.92616486 -59.79006897 246.73514221 -60.61965942 247.56863403 C-63.16556536 250.12665877 -65.70817649 252.68791907 -68.25 255.25 C-71.61955067 258.64607262 -74.9923523 262.03886729 -78.3671875 265.4296875 C-79.14109833 266.21189667 -79.91500916 266.99410583 -80.71237183 267.80001831 C-81.42716705 268.51811676 -82.14196228 269.23621521 -82.87841797 269.97607422 C-83.82151321 270.92702469 -83.82151321 270.92702469 -84.78366089 271.89718628 C-86.375 273.375 -86.375 273.375 -88.375 274.375 C-87.05379172 277.30730193 -85.62861803 279.36164899 -83.3359375 281.609375 C-82.75585938 282.18300781 -82.17578125 282.75664062 -81.578125 283.34765625 C-80.67320312 284.22744141 -80.67320312 284.22744141 -79.75 285.125 C-78.83347656 286.02798828 -78.83347656 286.02798828 -77.8984375 286.94921875 C-76.39511376 288.42905305 -74.88565144 289.90264676 -73.375 291.375 C-69.08081393 287.93965114 -65.35517957 284.32165567 -61.69140625 280.21875 C-54.14808601 271.88222069 -46.10822238 264.03636311 -38.125 256.125 C-35.11679675 253.14362149 -32.11209545 250.15877438 -29.109375 247.171875 C-28.09976715 246.17471466 -28.09976715 246.17471466 -27.06976318 245.15740967 C-23.17296864 241.28058183 -19.48666221 237.28484709 -15.89602661 233.12310791 C-14.20916924 231.18441158 -12.45459519 229.33955143 -10.62890625 227.53125 C-10.01982422 226.92539063 -9.41074219 226.31953125 -8.78320312 225.6953125 C-8.17412109 225.09460938 -7.56503906 224.49390625 -6.9375 223.875 C-6.30134766 223.24335938 -5.66519531 222.61171875 -5.00976562 221.9609375 C-3.46717194 220.42994226 -1.92142686 218.90212333 -0.375 217.375 C2.86675319 218.4555844 3.35459606 218.98487902 5.4128418 221.53173828 C11.21169418 228.35795645 17.67833516 234.55098769 24.01953125 240.8671875 C25.41743035 242.2632182 26.81510636 243.65947231 28.21257019 245.05593872 C31.87065917 248.71023198 35.53174135 252.36151179 39.19348145 256.012146 C42.9296401 259.73804104 46.66294077 263.46679736 50.39648438 267.1953125 C56.94203996 273.73132247 63.490039 280.26487623 70.03987122 286.79660034 C71.56911539 288.32186388 73.09774485 289.84774485 74.625 291.375 C79.575 286.425 84.525 281.475 89.625 276.375 C87.60557239 272.33614478 85.25880075 269.73260425 82.10888672 266.6159668 C81.26453316 265.76876572 81.26453316 265.76876572 80.40312195 264.90444946 C78.54182686 263.03945194 76.67342931 261.18175224 74.8046875 259.32421875 C73.50355146 258.02427572 72.20278586 256.72396181 70.90237427 255.42329407 C68.17335014 252.6958343 65.4410003 249.9717659 62.70605469 247.25024414 C59.21770005 243.7788031 55.73588715 240.30089295 52.25636101 236.82060528 C49.56789382 234.13241156 46.87681579 231.44684423 44.1848793 228.76212502 C42.90141139 227.48181874 41.61853017 226.20092403 40.33626938 224.9194088 C31.47381339 216.04426119 31.47381339 216.04426119 22.14041138 207.67146301 C20.19579414 206.00780629 18.39660455 204.22042141 16.625 202.375 C18.2080577 198.1007442 21.13068404 196.10968206 24.625 193.375 C25.22699219 194.18324219 25.82898438 194.99148437 26.44921875 195.82421875 C29.72573087 199.08229113 33.02011575 199.09980846 37.48217773 199.22265625 C38.45743408 199.21105469 39.43269043 199.19945312 40.4375 199.1875 C41.93035522 199.17589844 41.93035522 199.17589844 43.45336914 199.1640625 C48.73590331 198.96087127 52.66923494 198.8070426 56.5625 194.875 C57.63348332 193.41038557 58.65741221 191.90988584 59.625 190.375 C60.6880319 189.12823419 61.77197115 187.89902349 62.875 186.6875 C63.4421875 186.02878906 64.009375 185.37007813 64.59375 184.69140625 C67.13841498 181.78950946 69.75244844 178.95644205 72.375 176.125 C72.8908667 175.56796387 73.4067334 175.01092773 73.93823242 174.43701172 C74.9878861 173.30380919 76.0376095 172.17067125 77.08740234 171.03759766 C79.46208072 168.46986826 81.82548404 165.89187417 84.1875 163.3125 C85.07179688 162.34699219 85.95609375 161.38148438 86.8671875 160.38671875 C87.31288086 159.89993652 87.75857422 159.4131543 88.21777344 158.91162109 C90.74828 156.14843436 93.28051386 153.38683088 95.8125 150.625 C96.74349663 149.60938146 97.67448689 148.59375708 98.60546875 147.578125 C99.27191406 146.85109375 99.93835938 146.1240625 100.625 145.375 C99.29580708 142.40689931 97.84637857 140.36936211 95.5 138.125 C94.55125 137.2175 93.6025 136.31 92.625 135.375 C89.44240149 136.78009099 87.31151534 138.44421342 84.86621094 140.90673828 C83.78554352 141.98763229 83.78554352 141.98763229 82.68304443 143.09036255 C81.91623352 143.86749603 81.14942261 144.64462952 80.359375 145.4453125 C79.56597717 146.24154022 78.77257935 147.03776794 77.95513916 147.85812378 C75.42369297 150.40075948 72.89929197 152.95026348 70.375 155.5 C68.65931383 157.22571753 66.94317338 158.95098355 65.2265625 160.67578125 C61.02075752 164.90363032 56.82071493 169.13713869 52.625 173.375 C49.25751488 171.85552501 48.01659663 170.85399158 46.625 167.375 C47.33785156 166.67375 48.05070313 165.9725 48.78515625 165.25 C49.75274323 164.29180707 50.72018313 163.33346561 51.6875 162.375 C52.15349609 161.91738281 52.61949219 161.45976562 53.09960938 160.98828125 C55.84874219 158.25785002 58.45229776 155.4525422 60.98046875 152.515625 C64.74137387 148.17138949 68.77572906 144.147792 72.875 140.125 C74.2784099 138.74719977 75.67953717 137.36706979 77.078125 135.984375 C77.68817383 135.38592773 78.29822266 134.78748047 78.92675781 134.17089844 C80.6607947 132.33714695 82.15085452 130.42123555 83.625 128.375 C82.24311547 125.16456118 80.70078097 123.32563635 78 121.125 C77.36835938 120.60421875 76.73671875 120.0834375 76.0859375 119.546875 C75.36277344 118.96679688 75.36277344 118.96679688 74.625 118.375 C74.00625 119.01115234 74.00625 119.01115234 73.375 119.66015625 C72.7975 120.24667969 72.22 120.83320312 71.625 121.4375 C71.068125 122.00597656 70.51125 122.57445313 69.9375 123.16015625 C67.97238135 125.04228847 65.96782081 126.81618197 63.90625 128.58984375 C59.43120551 132.48012837 55.27804282 136.64630977 51.125 140.875 C45.81246619 146.28430128 40.40580055 151.46559872 34.625 156.375 C32.645 154.725 30.665 153.075 28.625 151.375 C32.99529366 146.14551256 37.59411804 141.27210045 42.4296875 136.47265625 C43.1536673 135.7500914 43.87764709 135.02752655 44.62356567 134.2830658 C46.91335265 131.99883078 49.20660993 129.71811688 51.5 127.4375 C53.06273161 125.87978961 54.6252339 124.32184913 56.1875 122.76367188 C59.9973531 118.96478398 63.81005379 115.16877287 67.625 111.375 C66.66770084 110.24911986 65.70912105 109.1243285 64.75 108 C64.21632813 107.37351562 63.68265625 106.74703125 63.1328125 106.1015625 C62.01067993 104.81663349 60.83128025 103.58128025 59.625 102.375 C56.51091888 102.04410111 56.51091888 102.04410111 54.42578125 104.31640625 Z " fill="#E38413" transform="translate(249.375,-0.375)"/>
<path d="M0 0 C1.66123742 1.6528895 3.26000288 3.36957806 4.8125 5.125 C6.12154297 6.60033203 6.12154297 6.60033203 7.45703125 8.10546875 C8.29621094 9.06066406 9.13539063 10.01585937 10 11 C10.70511719 11.77988281 11.41023438 12.55976563 12.13671875 13.36328125 C12.75160156 14.04777344 13.36648437 14.73226563 14 15.4375 C14.53625 16.03433594 15.0725 16.63117188 15.625 17.24609375 C17.05989385 19.07639869 17.99043426 20.91210803 19 23 C18.25242432 23.08975098 17.50484863 23.17950195 16.73461914 23.27197266 C3.0924996 24.94379593 -10.3724185 26.79784894 -23.75 30 C-24.75281006 30.2367041 -25.75562012 30.4734082 -26.78881836 30.71728516 C-32.22168189 32.0744659 -37.18838491 33.78784357 -42.23144531 36.23046875 C-44 37 -44 37 -46 37 C-46 38.32 -46 39.64 -46 41 C12.76245628 61.03868767 87.18554381 63.92022953 146.01269531 42.15795898 C148.39896143 40.7675339 149.01844253 39.53833942 150 37 C148.73349609 36.57847656 148.73349609 36.57847656 147.44140625 36.1484375 C145.1752346 35.39218953 142.91209444 34.62678619 140.65234375 33.8515625 C122.56422123 27.87924865 103.84621813 25.36839689 85 23 C87.38564363 18.58942862 90.38583649 15.2257567 93.8125 11.625 C94.84114439 10.53508022 95.86848631 9.44392974 96.89453125 8.3515625 C97.41176758 7.81273437 97.92900391 7.27390625 98.46191406 6.71875 C100.05003471 5.00867546 100.05003471 5.00867546 101.42089844 3 C104.9152771 -1.80267786 104.9152771 -1.80267786 107.92993164 -2.35107422 C110.24363281 -2.18877501 112.36696231 -1.7800931 114.625 -1.25 C115.86310425 -1.0029834 115.86310425 -1.0029834 117.1262207 -0.75097656 C119.76174573 -0.20910685 122.37895617 0.39227782 125 1 C126.70951544 1.3651455 128.41914969 1.7297352 130.12890625 2.09375 C147.12710877 5.87749001 166.69199935 11.85929816 176.9140625 27.07421875 C180.37569114 33.21300623 180.73355876 39.272141 179 46 C172.48415123 60.05561663 158.70778673 66.698234 144.90429688 71.77001953 C133.25923026 75.77127332 121.14225525 78.10817601 109 80 C107.58243408 80.22864746 107.58243408 80.22864746 106.13623047 80.46191406 C58.07514933 87.82168935 -5.02796489 88.69365384 -50 68 C-51.00546875 67.53980469 -52.0109375 67.07960938 -53.046875 66.60546875 C-62.02689405 62.10305588 -71.14536902 55.55278112 -75 46 C-76.81367396 38.23441007 -75.78576644 32.7559631 -71.8125 25.97265625 C-60.25136836 8.86086766 -35.91702577 3.77858518 -16.93359375 -0.04296875 C-15.31095081 -0.34683447 -13.68726987 -0.64522037 -12.0625 -0.9375 C-11.3111377 -1.07833008 -10.55977539 -1.21916016 -9.78564453 -1.36425781 C-3.17966578 -2.4538725 -3.17966578 -2.4538725 0 0 Z " fill="#E28413" transform="translate(198,417)"/>
<path d="M0 0 C0 0.99 0 1.98 0 3 C-0.66 3.66 -1.32 4.32 -2 5 C-1.01 5.33 -0.02 5.66 1 6 C1 6.66 1 7.32 1 8 C1.99 8 2.98 8 4 8 C3.34 9.32 2.68 10.64 2 12 C-1 12 -1 12 -2.38671875 10.6875 C-3.59114583 9.125 -4.79557292 7.5625 -6 6 C-4.02 4.02 -2.04 2.04 0 0 Z " fill="#D9851D" transform="translate(283,144)"/>
<path d="M0 0 C0.66 0.66 1.32 1.32 2 2 C1.01 2.33 0.02 2.66 -1 3 C-0.505 3.45375 -0.01 3.9075 0.5 4.375 C2 6 2 6 2 8 C2.66 8 3.32 8 4 8 C4 6.35 4 4.7 4 3 C5.32 2.34 6.64 1.68 8 1 C8.25 3.25 8.25 3.25 8 6 C6 8.3125 6 8.3125 4 10 C1.11562221 8.70700306 -0.87219421 7.34058637 -3 5 C-1.125 1.125 -1.125 1.125 0 0 Z " fill="#E0821C" transform="translate(298,164)"/>
<path d="M0 0 C-0.33 0.99 -0.66 1.98 -1 3 C-2.7290774 3.02725341 -4.45828176 3.04650987 -6.1875 3.0625 C-7.63189453 3.07990234 -7.63189453 3.07990234 -9.10546875 3.09765625 C-11.85576513 3.00486622 -14.32479591 2.62111685 -17 2 C-17 1.67 -17 1.34 -17 1 C-14.54171921 0.83252588 -12.08338135 0.6659856 -9.625 0.5 C-8.92632812 0.45230469 -8.22765625 0.40460938 -7.5078125 0.35546875 C-2.2265625 0 -2.2265625 0 0 0 Z " fill="#D28820" transform="translate(260,473)"/>
<path d="M0 0 C0.66 0.66 1.32 1.32 2 2 C1.62793814 6.34072171 -0.22951915 10.07415115 -2 14 C-3.231394 10.30581799 -2.64432764 7.7943739 -2 4 C-1.34 4 -0.68 4 0 4 C0 2.68 0 1.36 0 0 Z " fill="#D48913" transform="translate(396,244)"/>
<path d="M0 0 C1.65 0 3.3 0 5 0 C5.66 1.32 6.32 2.64 7 4 C4.69 4.33 2.38 4.66 0 5 C0 3.35 0 1.7 0 0 Z " fill="#DF8E26" transform="translate(210,436)"/>
<path d="M0 0 C0.66 0 1.32 0 2 0 C1.875 2.3125 1.875 2.3125 1 5 C-2.0625 6.8125 -2.0625 6.8125 -5 8 C-3.63055898 5.05043472 -2.12169591 2.47531189 0 0 Z " fill="#D78914" transform="translate(116,59)"/>
<path d="M0 0 C0.99 1.485 0.99 1.485 2 3 C1.319375 2.690625 0.63875 2.38125 -0.0625 2.0625 C-3.36965912 0.86629351 -6.51545878 0.40994603 -10 0 C-10 -0.33 -10 -0.66 -10 -1 C-5.96598549 -1.91682148 -3.46902632 -2.47787594 0 0 Z " fill="#D3872A" transform="translate(198,417)"/>
<path d="M0 0 C0 0.99 0 1.98 0 3 C-3.3 2.34 -6.6 1.68 -10 1 C-10 0.67 -10 0.34 -10 0 C-3.375 -1.125 -3.375 -1.125 0 0 Z " fill="#D18737" transform="translate(332,445)"/>
<path d="M0 0 C0.33 1.32 0.66 2.64 1 4 C-0.9375 6.25 -0.9375 6.25 -3 8 C-3.99 7.67 -4.98 7.34 -6 7 C-4.02 4.69 -2.04 2.38 0 0 Z " fill="#CF8B1D" transform="translate(303,416)"/>
<path d="M0 0 C0.99 0 1.98 0 3 0 C1.515 5.445 1.515 5.445 0 11 C-0.33 11 -0.66 11 -1 11 C-0.67 7.37 -0.34 3.74 0 0 Z " fill="#D88624" transform="translate(402,228)"/>
<path d="M0 0 C1.32 0.66 2.64 1.32 4 2 C2.25 3.5625 2.25 3.5625 0 5 C-2.25 4.6875 -2.25 4.6875 -4 4 C-2.68 2.68 -1.36 1.36 0 0 Z " fill="#DA8C2D" transform="translate(249,216)"/>
<path d="M0 0 C0.33 0.66 0.66 1.32 1 2 C-0.4375 4.625 -0.4375 4.625 -2 7 C-3.32 6.67 -4.64 6.34 -6 6 C-4.02 4.02 -2.04 2.04 0 0 Z " fill="#DF8830" transform="translate(313,148)"/>
<path d="M0 0 C0.33 1.32 0.66 2.64 1 4 C-0.32 4.99 -1.64 5.98 -3 7 C-3.66 6.34 -4.32 5.68 -5 5 C-3.35 3.35 -1.7 1.7 0 0 Z " fill="#E3932E" transform="translate(234,231)"/>
<path d="M0 0 C0.66 0 1.32 0 2 0 C2.33 0.99 2.66 1.98 3 3 C4.99665314 4.68538601 4.99665314 4.68538601 7 6 C5.68 6 4.36 6 3 6 C0.75 3.5 0.75 3.5 -1 1 C-0.67 0.67 -0.34 0.34 0 0 Z " fill="#EAA737" transform="translate(246,180)"/>
<path d="M0 0 C0.33 0.99 0.66 1.98 1 3 C1.66 3 2.32 3 3 3 C3 3.99 3 4.98 3 6 C1.68 6 0.36 6 -1 6 C-1.625 4.125 -1.625 4.125 -2 2 C-1.34 1.34 -0.68 0.68 0 0 Z " fill="#DA8324" transform="translate(295,132)"/>
<path d="M0 0 C0.33 0.99 0.66 1.98 1 3 C1.66 3 2.32 3 3 3 C3 3.99 3 4.98 3 6 C1.68 6 0.36 6 -1 6 C-1.625 4.125 -1.625 4.125 -2 2 C-1.34 1.34 -0.68 0.68 0 0 Z " fill="#DB8426" transform="translate(311,116)"/>
<path d="M0 0 C2.97 0.99 5.94 1.98 9 3 C9 3.33 9 3.66 9 4 C6.69 4 4.38 4 2 4 C1.34 2.68 0.68 1.36 0 0 Z " fill="#D4872B" transform="translate(305,7)"/>
<path d="M0 0 C3.68754757 0.49831724 5.60490662 1.10067643 8 4 C6.02 4 4.04 4 2 4 C2 3.01 2 2.02 2 1 C1.34 0.67 0.68 0.34 0 0 Z " fill="#DB851D" transform="translate(348,426)"/>
<path d="M0 0 C0.99 0 1.98 0 3 0 C3.33 1.32 3.66 2.64 4 4 C2.35 4 0.7 4 -1 4 C-0.67 2.68 -0.34 1.36 0 0 Z " fill="#DC8324" transform="translate(310,158)"/>
</svg>
